<svg id="visual" viewBox="0 0 960 540" width="960" height="540" xmlns="http://www.w3.org/2000/svg" xmlns:xlink="http://www.w3.org/1999/xlink" version="1.1"><rect x="0" y="0" width="960" height="540" fill="#000a11"></rect><path d="M0 309L20 295C40 281 80 253 120 251.5C160 250 200 275 240 284.7C280 294.3 320 288.7 360 290.3C400 292 440 301 480 293.8C520 286.7 560 263.3 600 263.5C640 263.7 680 287.3 720 296.7C760 306 800 301 840 302.7C880 304.3 920 312.7 940 316.8L960 321L960 541L940 541C920 541 880 541 840 541C800 541 760 541 720 541C680 541 640 541 600 541C560 541 520 541 480 541C440 541 400 541 360 541C320 541 280 541 240 541C200 541 160 541 120 541C80 541 40 541 20 541L0 541Z" fill="#000f1f"></path><path d="M0 326L20 325.3C40 324.7 80 323.3 120 324.8C160 326.3 200 330.7 240 335.8C280 341 320 347 360 340.3C400 333.7 440 314.3 480 312.2C520 310 560 325 600 327C640 329 680 318 720 304.3C760 290.7 800 274.3 840 266.5C880 258.7 920 259.3 940 259.7L960 260L960 541L940 541C920 541 880 541 840 541C800 541 760 541 720 541C680 541 640 541 600 541C560 541 520 541 480 541C440 541 400 541 360 541C320 541 280 541 240 541C200 541 160 541 120 541C80 541 40 541 20 541L0 541Z" fill="#011428"></path><path d="M0 364L20 365.5C40 367 80 370 120 359.7C160 349.3 200 325.7 240 318.5C280 311.3 320 320.7 360 330.2C400 339.7 440 349.3 480 357.2C520 365 560 371 600 367.5C640 364 680 351 720 343.3C760 335.7 800 333.3 840 335.7C880 338 920 345 940 348.5L960 352L960 541L940 541C920 541 880 541 840 541C800 541 760 541 720 541C680 541 640 541 600 541C560 541 520 541 480 541C440 541 400 541 360 541C320 541 280 541 240 541C200 541 160 541 120 541C80 541 40 541 20 541L0 541Z" fill="#001732"></path><path d="M0 392L20 387.5C40 383 80 374 120 377.5C160 381 200 397 240 401.7C280 406.3 320 399.7 360 386.8C400 374 440 355 480 350C520 345 560 354 600 364.5C640 375 680 387 720 387.2C760 387.3 800 375.7 840 377.3C880 379 920 394 940 401.5L960 409L960 541L940 541C920 541 880 541 840 541C800 541 760 541 720 541C680 541 640 541 600 541C560 541 520 541 480 541C440 541 400 541 360 541C320 541 280 541 240 541C200 541 160 541 120 541C80 541 40 541 20 541L0 541Z" fill="#001b3b"></path><path d="M0 396L20 395.8C40 395.7 80 395.3 120 402.2C160 409 200 423 240 429.2C280 435.3 320 433.7 360 423.2C400 412.7 440 393.3 480 387.3C520 381.3 560 388.7 600 392.3C640 396 680 396 720 402C760 408 800 420 840 422.5C880 425 920 418 940 414.5L960 411L960 541L940 541C920 541 880 541 840 541C800 541 760 541 720 541C680 541 640 541 600 541C560 541 520 541 480 541C440 541 400 541 360 541C320 541 280 541 240 541C200 541 160 541 120 541C80 541 40 541 20 541L0 541Z" fill="#001d45"></path><path d="M0 456L20 453.2C40 450.3 80 444.7 120 444.5C160 444.3 200 449.7 240 445.2C280 440.7 320 426.3 360 426.7C400 427 440 442 480 443.5C520 445 560 433 600 432.8C640 432.7 680 444.3 720 441.3C760 438.3 800 420.7 840 413.8C880 407 920 411 940 413L960 415L960 541L940 541C920 541 880 541 840 541C800 541 760 541 720 541C680 541 640 541 600 541C560 541 520 541 480 541C440 541 400 541 360 541C320 541 280 541 240 541C200 541 160 541 120 541C80 541 40 541 20 541L0 541Z" fill="#00204f"></path><path d="M0 465L20 467.8C40 470.7 80 476.3 120 477.7C160 479 200 476 240 469C280 462 320 451 360 450C400 449 440 458 480 458.7C520 459.3 560 451.7 600 453C640 454.3 680 464.7 720 470.2C760 475.7 800 476.3 840 476.2C880 476 920 475 940 474.5L960 474L960 541L940 541C920 541 880 541 840 541C800 541 760 541 720 541C680 541 640 541 600 541C560 541 520 541 480 541C440 541 400 541 360 541C320 541 280 541 240 541C200 541 160 541 120 541C80 541 40 541 20 541L0 541Z" fill="#002358"></path><path d="M0 490L20 489.3C40 488.7 80 487.3 120 486.2C160 485 200 484 240 488.2C280 492.3 320 501.7 360 506.5C400 511.3 440 511.7 480 510.3C520 509 560 506 600 505C640 504 680 505 720 500.8C760 496.7 800 487.3 840 483.8C880 480.3 920 482.7 940 483.8L960 485L960 541L940 541C920 541 880 541 840 541C800 541 760 541 720 541C680 541 640 541 600 541C560 541 520 541 480 541C440 541 400 541 360 541C320 541 280 541 240 541C200 541 160 541 120 541C80 541 40 541 20 541L0 541Z" fill="#012562"></path></svg>